<svg xmlns="http://www.w3.org/2000/svg" xmlns:xlink="http://www.w3.org/1999/xlink" width="100" zoomAndPan="magnify" viewBox="0 0 75 74.999997" height="100" preserveAspectRatio="xMidYMid meet" version="1.0"><defs><clipPath id="85937982ce"><path d="M 6.722656 10.691406 L 68.222656 10.691406 L 68.222656 39 L 6.722656 39 Z M 6.722656 10.691406 " clip-rule="nonzero"/></clipPath><clipPath id="a6879f0ef1"><path d="M 6.722656 33 L 68.222656 33 L 68.222656 60.941406 L 6.722656 60.941406 Z M 6.722656 33 " clip-rule="nonzero"/></clipPath></defs><g clip-path="url(#85937982ce)"><path fill="#333333" d="M 65.425781 38.609375 C 64.875 38.605469 64.332031 38.554688 63.789062 38.445312 C 63.25 38.335938 62.726562 38.179688 62.21875 37.96875 C 61.710938 37.757812 61.226562 37.5 60.769531 37.195312 C 60.3125 36.886719 59.886719 36.539062 59.5 36.152344 C 59.109375 35.761719 58.761719 35.339844 58.457031 34.882812 C 58.148438 34.425781 57.890625 33.945312 57.679688 33.4375 C 57.46875 32.929688 57.308594 32.40625 57.203125 31.867188 C 57.09375 31.328125 57.039062 30.78125 57.039062 30.234375 L 57.039062 19.066406 C 57.039062 18.695312 56.96875 18.339844 56.828125 17.996094 C 56.683594 17.65625 56.484375 17.355469 56.222656 17.089844 C 55.960938 16.828125 55.65625 16.628906 55.3125 16.488281 C 54.972656 16.34375 54.617188 16.273438 54.246094 16.273438 L 20.699219 16.273438 C 20.328125 16.273438 19.972656 16.34375 19.628906 16.488281 C 19.289062 16.628906 18.984375 16.828125 18.722656 17.089844 C 18.460938 17.355469 18.257812 17.65625 18.117188 17.996094 C 17.976562 18.339844 17.90625 18.695312 17.90625 19.066406 L 17.90625 30.234375 C 17.902344 30.78125 17.851562 31.328125 17.742188 31.867188 C 17.632812 32.40625 17.476562 32.929688 17.265625 33.4375 C 17.054688 33.945312 16.792969 34.425781 16.488281 34.882812 C 16.183594 35.339844 15.835938 35.761719 15.445312 36.152344 C 15.054688 36.539062 14.632812 36.886719 14.175781 37.195312 C 13.71875 37.5 13.234375 37.757812 12.726562 37.96875 C 12.21875 38.179688 11.695312 38.335938 11.152344 38.445312 C 10.613281 38.554688 10.070312 38.605469 9.519531 38.609375 C 9.148438 38.609375 8.792969 38.535156 8.449219 38.394531 C 8.105469 38.253906 7.804688 38.050781 7.542969 37.789062 C 7.28125 37.527344 7.078125 37.226562 6.9375 36.882812 C 6.792969 36.542969 6.722656 36.1875 6.722656 35.816406 C 6.722656 35.445312 6.792969 35.089844 6.9375 34.746094 C 7.078125 34.40625 7.28125 34.105469 7.542969 33.839844 C 7.804688 33.578125 8.105469 33.378906 8.449219 33.238281 C 8.792969 33.09375 9.148438 33.023438 9.519531 33.023438 C 9.890625 33.023438 10.246094 32.953125 10.589844 32.8125 C 10.929688 32.671875 11.234375 32.46875 11.496094 32.207031 C 11.757812 31.945312 11.960938 31.644531 12.101562 31.300781 C 12.242188 30.957031 12.3125 30.601562 12.3125 30.234375 L 12.3125 19.066406 C 12.3125 18.515625 12.367188 17.972656 12.476562 17.433594 C 12.585938 16.894531 12.742188 16.371094 12.953125 15.863281 C 13.164062 15.355469 13.421875 14.871094 13.730469 14.414062 C 14.035156 13.957031 14.382812 13.535156 14.773438 13.144531 C 15.160156 12.757812 15.585938 12.410156 16.042969 12.105469 C 16.5 11.800781 16.984375 11.542969 17.492188 11.332031 C 18 11.121094 18.523438 10.960938 19.066406 10.851562 C 19.605469 10.746094 20.148438 10.691406 20.699219 10.691406 L 54.246094 10.691406 C 54.796875 10.691406 55.339844 10.746094 55.878906 10.851562 C 56.421875 10.960938 56.945312 11.121094 57.453125 11.332031 C 57.960938 11.542969 58.445312 11.800781 58.902344 12.105469 C 59.359375 12.410156 59.78125 12.757812 60.171875 13.144531 C 60.5625 13.535156 60.910156 13.957031 61.214844 14.414062 C 61.519531 14.871094 61.78125 15.355469 61.992188 15.863281 C 62.203125 16.371094 62.359375 16.894531 62.46875 17.433594 C 62.574219 17.972656 62.628906 18.515625 62.632812 19.066406 L 62.632812 30.234375 C 62.632812 30.601562 62.703125 30.957031 62.84375 31.300781 C 62.984375 31.644531 63.1875 31.945312 63.449219 32.207031 C 63.710938 32.46875 64.015625 32.671875 64.355469 32.8125 C 64.699219 32.953125 65.054688 33.023438 65.425781 33.023438 C 65.796875 33.023438 66.152344 33.09375 66.496094 33.238281 C 66.839844 33.378906 67.140625 33.578125 67.402344 33.839844 C 67.664062 34.105469 67.867188 34.40625 68.007812 34.746094 C 68.152344 35.089844 68.222656 35.445312 68.222656 35.816406 C 68.222656 36.1875 68.152344 36.542969 68.007812 36.882812 C 67.867188 37.226562 67.664062 37.527344 67.402344 37.789062 C 67.140625 38.050781 66.839844 38.253906 66.496094 38.394531 C 66.152344 38.535156 65.796875 38.609375 65.425781 38.609375 Z M 65.425781 38.609375 " fill-opacity="1" fill-rule="nonzero"/></g><g clip-path="url(#a6879f0ef1)"><path fill="#333333" d="M 54.246094 60.941406 L 20.699219 60.941406 C 20.148438 60.941406 19.605469 60.886719 19.066406 60.777344 C 18.523438 60.671875 18 60.511719 17.492188 60.300781 C 16.984375 60.089844 16.5 59.832031 16.042969 59.527344 C 15.585938 59.222656 15.160156 58.875 14.773438 58.484375 C 14.382812 58.097656 14.035156 57.671875 13.730469 57.214844 C 13.421875 56.757812 13.164062 56.277344 12.953125 55.769531 C 12.742188 55.261719 12.585938 54.738281 12.476562 54.199219 C 12.367188 53.660156 12.3125 53.117188 12.3125 52.566406 L 12.3125 41.398438 C 12.3125 41.027344 12.242188 40.671875 12.101562 40.332031 C 11.960938 39.988281 11.757812 39.6875 11.496094 39.425781 C 11.234375 39.164062 10.929688 38.960938 10.589844 38.820312 C 10.246094 38.679688 9.890625 38.609375 9.519531 38.609375 C 9.148438 38.609375 8.792969 38.535156 8.449219 38.394531 C 8.105469 38.253906 7.804688 38.050781 7.542969 37.789062 C 7.28125 37.527344 7.078125 37.226562 6.9375 36.882812 C 6.792969 36.542969 6.722656 36.1875 6.722656 35.816406 C 6.722656 35.445312 6.792969 35.089844 6.9375 34.746094 C 7.078125 34.40625 7.28125 34.105469 7.542969 33.839844 C 7.804688 33.578125 8.105469 33.378906 8.449219 33.238281 C 8.792969 33.09375 9.148438 33.023438 9.519531 33.023438 C 10.070312 33.023438 10.613281 33.078125 11.152344 33.1875 C 11.695312 33.292969 12.21875 33.453125 12.726562 33.664062 C 13.234375 33.875 13.71875 34.132812 14.175781 34.4375 C 14.632812 34.742188 15.054688 35.089844 15.445312 35.480469 C 15.835938 35.867188 16.183594 36.292969 16.488281 36.75 C 16.792969 37.207031 17.054688 37.6875 17.265625 38.195312 C 17.476562 38.703125 17.632812 39.226562 17.742188 39.765625 C 17.851562 40.304688 17.902344 40.847656 17.90625 41.398438 L 17.90625 52.566406 C 17.90625 52.9375 17.976562 53.292969 18.117188 53.632812 C 18.257812 53.976562 18.460938 54.277344 18.722656 54.539062 C 18.984375 54.800781 19.289062 55.003906 19.628906 55.144531 C 19.972656 55.285156 20.328125 55.359375 20.699219 55.359375 L 54.246094 55.359375 C 54.617188 55.359375 54.972656 55.285156 55.3125 55.144531 C 55.65625 55.003906 55.960938 54.800781 56.222656 54.539062 C 56.484375 54.277344 56.683594 53.976562 56.828125 53.632812 C 56.96875 53.292969 57.039062 52.9375 57.039062 52.566406 L 57.039062 41.398438 C 57.039062 40.847656 57.09375 40.304688 57.203125 39.765625 C 57.308594 39.226562 57.46875 38.703125 57.679688 38.195312 C 57.890625 37.6875 58.148438 37.207031 58.457031 36.75 C 58.761719 36.292969 59.109375 35.867188 59.5 35.480469 C 59.886719 35.089844 60.3125 34.742188 60.769531 34.4375 C 61.226562 34.132812 61.710938 33.875 62.21875 33.664062 C 62.726562 33.453125 63.25 33.292969 63.789062 33.1875 C 64.332031 33.078125 64.875 33.023438 65.425781 33.023438 C 65.796875 33.023438 66.152344 33.09375 66.496094 33.238281 C 66.839844 33.378906 67.140625 33.578125 67.402344 33.839844 C 67.664062 34.105469 67.867188 34.40625 68.007812 34.746094 C 68.152344 35.089844 68.222656 35.445312 68.222656 35.816406 C 68.222656 36.1875 68.152344 36.542969 68.007812 36.882812 C 67.867188 37.226562 67.664062 37.527344 67.402344 37.789062 C 67.140625 38.050781 66.839844 38.253906 66.496094 38.394531 C 66.152344 38.535156 65.796875 38.609375 65.425781 38.609375 C 65.054688 38.609375 64.699219 38.679688 64.355469 38.820312 C 64.015625 38.960938 63.710938 39.164062 63.449219 39.425781 C 63.1875 39.6875 62.984375 39.988281 62.84375 40.332031 C 62.703125 40.671875 62.632812 41.027344 62.632812 41.398438 L 62.632812 52.566406 C 62.628906 53.117188 62.574219 53.660156 62.46875 54.199219 C 62.359375 54.738281 62.203125 55.261719 61.992188 55.769531 C 61.78125 56.277344 61.519531 56.757812 61.214844 57.214844 C 60.910156 57.671875 60.5625 58.097656 60.171875 58.484375 C 59.78125 58.875 59.359375 59.222656 58.902344 59.527344 C 58.445312 59.832031 57.960938 60.089844 57.453125 60.300781 C 56.945312 60.511719 56.421875 60.671875 55.878906 60.777344 C 55.339844 60.886719 54.796875 60.941406 54.246094 60.941406 Z M 54.246094 60.941406 " fill-opacity="1" fill-rule="nonzero"/></g><path fill="#333333" d="M 40.269531 49.773438 L 29.085938 49.773438 C 28.714844 49.773438 28.359375 49.703125 28.015625 49.5625 C 27.675781 49.421875 27.371094 49.21875 27.109375 48.957031 C 26.847656 48.695312 26.644531 48.394531 26.503906 48.050781 C 26.363281 47.707031 26.289062 47.351562 26.289062 46.984375 L 26.289062 24.648438 C 26.289062 24.277344 26.363281 23.921875 26.503906 23.582031 C 26.644531 23.238281 26.847656 22.9375 27.109375 22.675781 C 27.371094 22.414062 27.675781 22.210938 28.015625 22.070312 C 28.359375 21.929688 28.714844 21.859375 29.085938 21.859375 L 38.871094 21.859375 C 39.636719 21.859375 40.390625 21.960938 41.128906 22.167969 C 41.871094 22.375 42.566406 22.675781 43.222656 23.074219 C 43.878906 23.472656 44.46875 23.953125 44.992188 24.511719 C 45.515625 25.074219 45.957031 25.691406 46.308594 26.371094 C 46.664062 27.054688 46.917969 27.769531 47.074219 28.519531 C 47.234375 29.269531 47.285156 30.027344 47.234375 30.792969 C 47.183594 31.554688 47.03125 32.300781 46.773438 33.023438 C 46.519531 33.746094 46.167969 34.421875 45.730469 35.046875 C 46.378906 35.605469 46.929688 36.246094 47.382812 36.972656 C 47.832031 37.699219 48.167969 38.476562 48.382812 39.300781 C 48.59375 40.128906 48.679688 40.972656 48.636719 41.824219 C 48.59375 42.679688 48.421875 43.507812 48.125 44.308594 C 47.828125 45.109375 47.417969 45.847656 46.894531 46.523438 C 46.371094 47.199219 45.757812 47.78125 45.054688 48.269531 C 44.351562 48.761719 43.59375 49.132812 42.777344 49.390625 C 41.960938 49.644531 41.125 49.773438 40.269531 49.773438 Z M 31.882812 44.191406 L 40.269531 44.191406 C 40.636719 44.191406 40.996094 44.121094 41.335938 43.976562 C 41.679688 43.835938 41.980469 43.636719 42.246094 43.375 C 42.507812 43.113281 42.707031 42.808594 42.851562 42.46875 C 42.992188 42.125 43.0625 41.769531 43.0625 41.398438 C 43.0625 41.027344 42.992188 40.671875 42.851562 40.332031 C 42.707031 39.988281 42.507812 39.6875 42.246094 39.425781 C 41.980469 39.164062 41.679688 38.960938 41.335938 38.820312 C 40.996094 38.679688 40.636719 38.609375 40.269531 38.609375 L 31.882812 38.609375 Z M 31.882812 33.023438 L 38.871094 33.023438 C 39.242188 33.023438 39.597656 32.953125 39.941406 32.8125 C 40.28125 32.671875 40.585938 32.46875 40.847656 32.207031 C 41.109375 31.945312 41.3125 31.644531 41.453125 31.300781 C 41.59375 30.957031 41.664062 30.601562 41.664062 30.234375 C 41.664062 29.863281 41.59375 29.507812 41.453125 29.164062 C 41.3125 28.820312 41.109375 28.519531 40.847656 28.257812 C 40.585938 27.996094 40.28125 27.796875 39.941406 27.652344 C 39.597656 27.511719 39.242188 27.441406 38.871094 27.441406 L 31.882812 27.441406 Z M 31.882812 33.023438 " fill-opacity="1" fill-rule="nonzero"/></svg>