<svg xmlns="http://www.w3.org/2000/svg" xmlns:xlink="http://www.w3.org/1999/xlink" width="100" zoomAndPan="magnify" viewBox="0 0 75 74.999997" height="100" preserveAspectRatio="xMidYMid meet" version="1.0"><defs><clipPath id="c16c29cee2"><path d="M 13.488281 10.214844 L 61.488281 10.214844 L 61.488281 64.964844 L 13.488281 64.964844 Z M 13.488281 10.214844 " clip-rule="nonzero"/></clipPath><clipPath id="8546422ad1"><path d="M 13.488281 10.214844 L 55 10.214844 L 55 55 L 13.488281 55 Z M 13.488281 10.214844 " clip-rule="nonzero"/></clipPath></defs><g clip-path="url(#c16c29cee2)"><path fill="#545454" d="M 61.488281 26.417969 C 61.484375 25.503906 61.292969 24.699219 60.902344 24.007812 C 60.515625 23.328125 59.9375 22.757812 59.164062 22.308594 C 52.773438 18.605469 46.378906 14.917969 39.988281 11.210938 C 38.269531 10.210938 36.597656 10.25 34.886719 11.261719 C 32.34375 12.769531 19.609375 20.097656 15.816406 22.308594 C 14.253906 23.214844 13.492188 24.605469 13.492188 26.414062 C 13.488281 33.859375 13.492188 41.304688 13.488281 48.75 C 13.488281 49.640625 13.675781 50.429688 14.050781 51.109375 C 14.4375 51.8125 15.023438 52.394531 15.8125 52.855469 C 19.609375 55.066406 32.34375 62.394531 34.886719 63.898438 C 36.597656 64.914062 38.269531 64.949219 39.992188 63.949219 C 46.378906 60.246094 52.777344 56.554688 59.167969 52.851562 C 59.957031 52.390625 60.542969 51.808594 60.929688 51.109375 C 61.304688 50.425781 61.492188 49.636719 61.492188 48.746094 C 61.492188 48.746094 61.492188 33.859375 61.488281 26.417969 " fill-opacity="1" fill-rule="nonzero"/></g><g clip-path="url(#8546422ad1)"><path fill="#545454" d="M 39.945312 11.261719 C 38.226562 10.261719 36.558594 10.300781 34.851562 11.308594 C 32.316406 12.8125 19.601562 20.125 15.8125 22.328125 C 14.25 23.234375 13.492188 24.621094 13.492188 26.421875 C 13.488281 33.847656 13.492188 41.273438 13.488281 48.699219 C 13.488281 49.589844 13.675781 50.375 14.050781 51.054688 C 14.433594 51.753906 15.019531 52.335938 15.808594 52.796875 C 16.679688 53.300781 18.015625 54.074219 19.589844 54.984375 L 54.667969 19.773438 C 49.761719 16.9375 44.851562 14.101562 39.945312 11.261719 " fill-opacity="1" fill-rule="nonzero"/></g><path fill="#ffffff" d="M 42.449219 34.1875 L 49.921875 34.242188 C 49.921875 31.117188 46.769531 23.46875 37.738281 23.46875 C 31.984375 23.46875 24.246094 27.140625 24.246094 37.695312 C 24.246094 48.253906 31.832031 51.695312 37.738281 51.695312 C 47.304688 51.695312 49.589844 45.050781 49.589844 41.296875 L 42.460938 40.890625 C 42.460938 40.890625 42.652344 45.230469 37.699219 45.230469 C 33.125 45.230469 32.363281 39.609375 32.363281 37.695312 C 32.363281 34.789062 33.394531 30.125 37.699219 30.125 C 42.007812 30.125 42.449219 34.1875 42.449219 34.1875 " fill-opacity="1" fill-rule="nonzero"/></svg>