<svg xmlns="http://www.w3.org/2000/svg" xmlns:xlink="http://www.w3.org/1999/xlink" width="100" zoomAndPan="magnify" viewBox="0 0 75 74.999997" height="100" preserveAspectRatio="xMidYMid meet" version="1.0"><defs><clipPath id="be68ee93ec"><path d="M 15.25 9.539062 L 59.5 9.539062 L 59.5 59.789062 L 15.25 59.789062 Z M 15.25 9.539062 " clip-rule="nonzero"/></clipPath><clipPath id="5b5fdfe952"><path d="M 15.25 34 L 59 34 L 59 59.789062 L 15.25 59.789062 Z M 15.25 34 " clip-rule="nonzero"/></clipPath><clipPath id="a49a6e239c"><path d="M 37 22 L 59.5 22 L 59.5 48 L 37 48 Z M 37 22 " clip-rule="nonzero"/></clipPath></defs><g clip-path="url(#be68ee93ec)"><path fill="#545454" d="M 59.429688 24.421875 C 59.429688 23.585938 59.25 22.847656 58.890625 22.210938 C 58.535156 21.585938 58.003906 21.066406 57.292969 20.652344 C 51.417969 17.253906 45.542969 13.863281 39.667969 10.464844 C 38.085938 9.546875 36.550781 9.578125 34.980469 10.511719 C 32.644531 11.894531 20.9375 18.621094 17.449219 20.648438 C 16.015625 21.484375 15.316406 22.761719 15.316406 24.421875 C 15.3125 31.253906 15.316406 38.089844 15.3125 44.925781 C 15.3125 45.742188 15.484375 46.464844 15.828125 47.089844 C 16.183594 47.734375 16.722656 48.273438 17.449219 48.695312 C 20.9375 50.722656 32.640625 57.449219 34.980469 58.832031 C 36.550781 59.765625 38.085938 59.796875 39.671875 58.878906 C 45.542969 55.476562 51.421875 52.089844 57.296875 48.695312 C 58.023438 48.269531 58.5625 47.730469 58.917969 47.089844 C 59.261719 46.464844 59.429688 45.738281 59.429688 44.921875 C 59.429688 44.921875 59.429688 31.257812 59.429688 24.421875 " fill-opacity="1" fill-rule="nonzero"/></g><g clip-path="url(#5b5fdfe952)"><path fill="#545454" d="M 37.4375 34.605469 L 15.828125 47.089844 C 16.183594 47.734375 16.722656 48.273438 17.449219 48.695312 C 20.9375 50.722656 32.640625 57.449219 34.980469 58.832031 C 36.550781 59.765625 38.085938 59.796875 39.671875 58.878906 C 45.542969 55.476562 51.421875 52.089844 57.296875 48.691406 C 58.023438 48.269531 58.5625 47.730469 58.917969 47.089844 L 37.441406 34.605469 " fill-opacity="1" fill-rule="nonzero"/></g><path fill="#545454" d="M 31.039062 38.304688 C 32.296875 40.507812 34.660156 41.992188 37.371094 41.992188 C 40.101562 41.992188 42.476562 40.488281 43.730469 38.261719 L 37.4375 34.605469 L 31.039062 38.304688 " fill-opacity="1" fill-rule="nonzero"/><g clip-path="url(#a49a6e239c)"><path fill="#545454" d="M 59.429688 24.421875 C 59.429688 23.585938 59.25 22.847656 58.890625 22.210938 L 37.4375 34.605469 L 58.917969 47.089844 C 59.261719 46.464844 59.429688 45.738281 59.429688 44.921875 C 59.429688 44.921875 59.429688 31.257812 59.429688 24.421875 " fill-opacity="1" fill-rule="nonzero"/></g><path fill="#ffffff" d="M 58.25 35.496094 L 56.570312 35.496094 L 56.570312 37.179688 L 54.890625 37.179688 L 54.890625 35.496094 L 53.214844 35.496094 L 53.214844 33.8125 L 54.890625 33.8125 L 54.890625 32.128906 L 56.570312 32.128906 L 56.570312 33.8125 L 58.25 33.8125 L 58.25 35.496094 " fill-opacity="1" fill-rule="nonzero"/><path fill="#ffffff" d="M 52.125 35.496094 L 50.445312 35.496094 L 50.445312 37.179688 L 48.769531 37.179688 L 48.769531 35.496094 L 47.089844 35.496094 L 47.089844 33.8125 L 48.769531 33.8125 L 48.769531 32.128906 L 50.445312 32.128906 L 50.445312 33.8125 L 52.125 33.8125 L 52.125 35.496094 " fill-opacity="1" fill-rule="nonzero"/><path fill="#ffffff" d="M 43.730469 38.261719 C 42.476562 40.488281 40.101562 41.992188 37.371094 41.992188 C 34.660156 41.992188 32.296875 40.507812 31.039062 38.304688 C 30.425781 37.234375 30.078125 35.996094 30.078125 34.671875 C 30.078125 30.628906 33.34375 27.351562 37.371094 27.351562 C 40.066406 27.351562 42.417969 28.820312 43.679688 31 L 50.058594 27.316406 C 47.523438 22.925781 42.792969 19.96875 37.371094 19.96875 C 29.28125 19.96875 22.722656 26.550781 22.722656 34.671875 C 22.722656 37.335938 23.425781 39.832031 24.660156 41.988281 C 27.191406 46.402344 31.933594 49.375 37.371094 49.375 C 42.820312 49.375 47.570312 46.390625 50.09375 41.964844 L 43.730469 38.261719 " fill-opacity="1" fill-rule="nonzero"/></svg>