<svg xmlns="http://www.w3.org/2000/svg" xmlns:xlink="http://www.w3.org/1999/xlink" width="65" zoomAndPan="magnify" viewBox="0 0 48.75 48.749998" height="65" preserveAspectRatio="xMidYMid meet" version="1.0"><defs><clipPath id="bb3eddba44"><path d="M 1.535156 1.535156 L 47.285156 1.535156 L 47.285156 47.285156 L 1.535156 47.285156 Z M 1.535156 1.535156 " clip-rule="nonzero"/></clipPath></defs><g clip-path="url(#bb3eddba44)"><path fill="#333333" d="M 46.71875 35.121094 C 47.054688 36.015625 47.25 36.972656 47.277344 37.976562 C 47.285156 38.070312 47.285156 38.167969 47.285156 38.265625 C 47.285156 43.246094 43.246094 47.285156 38.265625 47.285156 C 17.980469 47.285156 1.535156 30.84375 1.535156 10.558594 C 1.535156 5.578125 5.578125 1.535156 10.558594 1.535156 C 10.65625 1.535156 10.75 1.535156 10.847656 1.542969 C 11.847656 1.574219 12.8125 1.769531 13.703125 2.101562 L 17.089844 16.765625 C 17.089844 16.769531 17.085938 16.773438 17.078125 16.777344 L 10.867188 19.570312 L 10.851562 19.578125 C 13.699219 28.257812 20.566406 35.121094 29.246094 37.972656 L 29.25 37.953125 L 32.046875 31.738281 L 46.71875 35.121094 " fill-opacity="1" fill-rule="nonzero"/></g></svg>