<svg xmlns="http://www.w3.org/2000/svg" xmlns:xlink="http://www.w3.org/1999/xlink" width="100" zoomAndPan="magnify" viewBox="0 0 75 74.999997" height="100" preserveAspectRatio="xMidYMid meet" version="1.0"><defs><g/></defs><g fill="#333333" fill-opacity="1"><g transform="translate(0.0000015, 45.03463)"><g><path d="M 0.71875 -7.71875 C 0.71875 -9.238281 1.046875 -10.59375 1.703125 -11.78125 C 2.367188 -12.96875 3.285156 -13.894531 4.453125 -14.5625 C 5.628906 -15.226562 6.96875 -15.5625 8.46875 -15.5625 C 10.289062 -15.5625 11.851562 -15.078125 13.15625 -14.109375 C 14.457031 -13.148438 15.328125 -11.835938 15.765625 -10.171875 L 11.640625 -10.171875 C 11.335938 -10.816406 10.898438 -11.304688 10.328125 -11.640625 C 9.765625 -11.972656 9.128906 -12.140625 8.421875 -12.140625 C 7.265625 -12.140625 6.328125 -11.738281 5.609375 -10.9375 C 4.890625 -10.132812 4.53125 -9.0625 4.53125 -7.71875 C 4.53125 -6.375 4.890625 -5.296875 5.609375 -4.484375 C 6.328125 -3.679688 7.265625 -3.28125 8.421875 -3.28125 C 9.128906 -3.28125 9.765625 -3.445312 10.328125 -3.78125 C 10.898438 -4.125 11.335938 -4.617188 11.640625 -5.265625 L 15.765625 -5.265625 C 15.328125 -3.597656 14.457031 -2.285156 13.15625 -1.328125 C 11.851562 -0.367188 10.289062 0.109375 8.46875 0.109375 C 6.96875 0.109375 5.628906 -0.222656 4.453125 -0.890625 C 3.285156 -1.554688 2.367188 -2.476562 1.703125 -3.65625 C 1.046875 -4.84375 0.71875 -6.195312 0.71875 -7.71875 Z M 0.71875 -7.71875 "/></g></g></g><g fill="#333333" fill-opacity="1"><g transform="translate(16.70903, 45.03463)"><g><path d="M 0.609375 -6.140625 C 0.609375 -7.390625 0.84375 -8.488281 1.3125 -9.4375 C 1.789062 -10.394531 2.441406 -11.128906 3.265625 -11.640625 C 4.085938 -12.148438 5 -12.40625 6 -12.40625 C 6.863281 -12.40625 7.617188 -12.226562 8.265625 -11.875 C 8.921875 -11.53125 9.425781 -11.070312 9.78125 -10.5 L 9.78125 -12.234375 L 13.53125 -12.234375 L 13.53125 0 L 9.78125 0 L 9.78125 -1.734375 C 9.414062 -1.160156 8.90625 -0.695312 8.25 -0.34375 C 7.601562 0 6.847656 0.171875 5.984375 0.171875 C 4.992188 0.171875 4.085938 -0.0820312 3.265625 -0.59375 C 2.441406 -1.113281 1.789062 -1.851562 1.3125 -2.8125 C 0.84375 -3.769531 0.609375 -4.878906 0.609375 -6.140625 Z M 9.78125 -6.109375 C 9.78125 -7.046875 9.519531 -7.785156 9 -8.328125 C 8.476562 -8.867188 7.847656 -9.140625 7.109375 -9.140625 C 6.359375 -9.140625 5.722656 -8.875 5.203125 -8.34375 C 4.679688 -7.8125 4.421875 -7.078125 4.421875 -6.140625 C 4.421875 -5.203125 4.679688 -4.457031 5.203125 -3.90625 C 5.722656 -3.363281 6.359375 -3.09375 7.109375 -3.09375 C 7.847656 -3.09375 8.476562 -3.363281 9 -3.90625 C 9.519531 -4.445312 9.78125 -5.179688 9.78125 -6.109375 Z M 9.78125 -6.109375 "/></g></g></g><g fill="#333333" fill-opacity="1"><g transform="translate(31.598049, 45.03463)"><g><path d="M 8.8125 -12.359375 C 10.238281 -12.359375 11.378906 -11.894531 12.234375 -10.96875 C 13.097656 -10.039062 13.53125 -8.765625 13.53125 -7.140625 L 13.53125 0 L 9.796875 0 L 9.796875 -6.640625 C 9.796875 -7.460938 9.582031 -8.097656 9.15625 -8.546875 C 8.738281 -9.003906 8.171875 -9.234375 7.453125 -9.234375 C 6.734375 -9.234375 6.160156 -9.003906 5.734375 -8.546875 C 5.316406 -8.097656 5.109375 -7.460938 5.109375 -6.640625 L 5.109375 0 L 1.359375 0 L 1.359375 -12.234375 L 5.109375 -12.234375 L 5.109375 -10.609375 C 5.484375 -11.148438 5.992188 -11.578125 6.640625 -11.890625 C 7.285156 -12.203125 8.007812 -12.359375 8.8125 -12.359375 Z M 8.8125 -12.359375 "/></g></g></g><g fill="#333333" fill-opacity="1"><g transform="translate(46.377432, 45.03463)"><g><path d="M 6.859375 -3.5 L 9.515625 -12.234375 L 13.5 -12.234375 L 9.15625 0 L 4.53125 0 L 0.203125 -12.234375 L 4.203125 -12.234375 Z M 6.859375 -3.5 "/></g></g></g><g fill="#333333" fill-opacity="1"><g transform="translate(60.104273, 45.03463)"><g><path d="M 0.609375 -6.140625 C 0.609375 -7.390625 0.84375 -8.488281 1.3125 -9.4375 C 1.789062 -10.394531 2.441406 -11.128906 3.265625 -11.640625 C 4.085938 -12.148438 5 -12.40625 6 -12.40625 C 6.863281 -12.40625 7.617188 -12.226562 8.265625 -11.875 C 8.921875 -11.53125 9.425781 -11.070312 9.78125 -10.5 L 9.78125 -12.234375 L 13.53125 -12.234375 L 13.53125 0 L 9.78125 0 L 9.78125 -1.734375 C 9.414062 -1.160156 8.90625 -0.695312 8.25 -0.34375 C 7.601562 0 6.847656 0.171875 5.984375 0.171875 C 4.992188 0.171875 4.085938 -0.0820312 3.265625 -0.59375 C 2.441406 -1.113281 1.789062 -1.851562 1.3125 -2.8125 C 0.84375 -3.769531 0.609375 -4.878906 0.609375 -6.140625 Z M 9.78125 -6.109375 C 9.78125 -7.046875 9.519531 -7.785156 9 -8.328125 C 8.476562 -8.867188 7.847656 -9.140625 7.109375 -9.140625 C 6.359375 -9.140625 5.722656 -8.875 5.203125 -8.34375 C 4.679688 -7.8125 4.421875 -7.078125 4.421875 -6.140625 C 4.421875 -5.203125 4.679688 -4.457031 5.203125 -3.90625 C 5.722656 -3.363281 6.359375 -3.09375 7.109375 -3.09375 C 7.847656 -3.09375 8.476562 -3.363281 9 -3.90625 C 9.519531 -4.445312 9.78125 -5.179688 9.78125 -6.109375 Z M 9.78125 -6.109375 "/></g></g></g></svg>