<svg xmlns="http://www.w3.org/2000/svg" xmlns:xlink="http://www.w3.org/1999/xlink" width="100" zoomAndPan="magnify" viewBox="0 0 75 74.999997" height="100" preserveAspectRatio="xMidYMid meet" version="1.0"><defs><g/></defs><g fill="#333333" fill-opacity="1"><g transform="translate(1.846875, 47.31484)"><g><path d="M 1.1875 -12.59375 C 1.1875 -15.082031 1.722656 -17.296875 2.796875 -19.234375 C 3.867188 -21.179688 5.363281 -22.695312 7.28125 -23.78125 C 9.207031 -24.875 11.382812 -25.421875 13.8125 -25.421875 C 16.800781 -25.421875 19.351562 -24.628906 21.46875 -23.046875 C 23.59375 -21.472656 25.015625 -19.328125 25.734375 -16.609375 L 19.015625 -16.609375 C 18.503906 -17.660156 17.789062 -18.457031 16.875 -19 C 15.957031 -19.550781 14.914062 -19.828125 13.75 -19.828125 C 11.863281 -19.828125 10.332031 -19.171875 9.15625 -17.859375 C 7.988281 -16.546875 7.40625 -14.789062 7.40625 -12.59375 C 7.40625 -10.40625 7.988281 -8.65625 9.15625 -7.34375 C 10.332031 -6.03125 11.863281 -5.375 13.75 -5.375 C 14.914062 -5.375 15.957031 -5.644531 16.875 -6.1875 C 17.789062 -6.738281 18.503906 -7.539062 19.015625 -8.59375 L 25.734375 -8.59375 C 25.015625 -5.875 23.59375 -3.734375 21.46875 -2.171875 C 19.351562 -0.609375 16.800781 0.171875 13.8125 0.171875 C 11.382812 0.171875 9.207031 -0.367188 7.28125 -1.453125 C 5.363281 -2.535156 3.867188 -4.039062 2.796875 -5.96875 C 1.722656 -7.90625 1.1875 -10.113281 1.1875 -12.59375 Z M 1.1875 -12.59375 "/></g></g></g><g fill="#333333" fill-opacity="1"><g transform="translate(29.118143, 47.31484)"><g><path d="M 11.3125 0.25 C 9.476562 0.25 7.832031 -0.046875 6.375 -0.640625 C 4.914062 -1.242188 3.75 -2.128906 2.875 -3.296875 C 2.007812 -4.460938 1.550781 -5.867188 1.5 -7.515625 L 8.015625 -7.515625 C 8.109375 -6.585938 8.429688 -5.878906 8.984375 -5.390625 C 9.535156 -4.898438 10.253906 -4.65625 11.140625 -4.65625 C 12.046875 -4.65625 12.757812 -4.863281 13.28125 -5.28125 C 13.800781 -5.695312 14.0625 -6.273438 14.0625 -7.015625 C 14.0625 -7.640625 13.851562 -8.148438 13.4375 -8.546875 C 13.019531 -8.953125 12.503906 -9.285156 11.890625 -9.546875 C 11.285156 -9.816406 10.425781 -10.117188 9.3125 -10.453125 C 7.6875 -10.953125 6.359375 -11.453125 5.328125 -11.953125 C 4.304688 -12.453125 3.425781 -13.191406 2.6875 -14.171875 C 1.945312 -15.148438 1.578125 -16.425781 1.578125 -18 C 1.578125 -20.34375 2.421875 -22.175781 4.109375 -23.5 C 5.804688 -24.820312 8.015625 -25.484375 10.734375 -25.484375 C 13.503906 -25.484375 15.734375 -24.820312 17.421875 -23.5 C 19.117188 -22.175781 20.03125 -20.332031 20.15625 -17.96875 L 13.53125 -17.96875 C 13.476562 -18.78125 13.175781 -19.414062 12.625 -19.875 C 12.082031 -20.34375 11.382812 -20.578125 10.53125 -20.578125 C 9.789062 -20.578125 9.191406 -20.378906 8.734375 -19.984375 C 8.273438 -19.597656 8.046875 -19.035156 8.046875 -18.296875 C 8.046875 -17.484375 8.425781 -16.847656 9.1875 -16.390625 C 9.957031 -15.941406 11.15625 -15.453125 12.78125 -14.921875 C 14.40625 -14.378906 15.722656 -13.851562 16.734375 -13.34375 C 17.742188 -12.84375 18.617188 -12.113281 19.359375 -11.15625 C 20.097656 -10.207031 20.46875 -8.984375 20.46875 -7.484375 C 20.46875 -6.046875 20.101562 -4.742188 19.375 -3.578125 C 18.65625 -2.410156 17.601562 -1.476562 16.21875 -0.78125 C 14.832031 -0.09375 13.195312 0.25 11.3125 0.25 Z M 11.3125 0.25 "/></g></g></g><g fill="#333333" fill-opacity="1"><g transform="translate(51.128426, 47.31484)"><g><path d="M 11.3125 0.25 C 9.476562 0.25 7.832031 -0.046875 6.375 -0.640625 C 4.914062 -1.242188 3.75 -2.128906 2.875 -3.296875 C 2.007812 -4.460938 1.550781 -5.867188 1.5 -7.515625 L 8.015625 -7.515625 C 8.109375 -6.585938 8.429688 -5.878906 8.984375 -5.390625 C 9.535156 -4.898438 10.253906 -4.65625 11.140625 -4.65625 C 12.046875 -4.65625 12.757812 -4.863281 13.28125 -5.28125 C 13.800781 -5.695312 14.0625 -6.273438 14.0625 -7.015625 C 14.0625 -7.640625 13.851562 -8.148438 13.4375 -8.546875 C 13.019531 -8.953125 12.503906 -9.285156 11.890625 -9.546875 C 11.285156 -9.816406 10.425781 -10.117188 9.3125 -10.453125 C 7.6875 -10.953125 6.359375 -11.453125 5.328125 -11.953125 C 4.304688 -12.453125 3.425781 -13.191406 2.6875 -14.171875 C 1.945312 -15.148438 1.578125 -16.425781 1.578125 -18 C 1.578125 -20.34375 2.421875 -22.175781 4.109375 -23.5 C 5.804688 -24.820312 8.015625 -25.484375 10.734375 -25.484375 C 13.503906 -25.484375 15.734375 -24.820312 17.421875 -23.5 C 19.117188 -22.175781 20.03125 -20.332031 20.15625 -17.96875 L 13.53125 -17.96875 C 13.476562 -18.78125 13.175781 -19.414062 12.625 -19.875 C 12.082031 -20.34375 11.382812 -20.578125 10.53125 -20.578125 C 9.789062 -20.578125 9.191406 -20.378906 8.734375 -19.984375 C 8.273438 -19.597656 8.046875 -19.035156 8.046875 -18.296875 C 8.046875 -17.484375 8.425781 -16.847656 9.1875 -16.390625 C 9.957031 -15.941406 11.15625 -15.453125 12.78125 -14.921875 C 14.40625 -14.378906 15.722656 -13.851562 16.734375 -13.34375 C 17.742188 -12.84375 18.617188 -12.113281 19.359375 -11.15625 C 20.097656 -10.207031 20.46875 -8.984375 20.46875 -7.484375 C 20.46875 -6.046875 20.101562 -4.742188 19.375 -3.578125 C 18.65625 -2.410156 17.601562 -1.476562 16.21875 -0.78125 C 14.832031 -0.09375 13.195312 0.25 11.3125 0.25 Z M 11.3125 0.25 "/></g></g></g></svg>