<svg xmlns="http://www.w3.org/2000/svg" xmlns:xlink="http://www.w3.org/1999/xlink" width="65" zoomAndPan="magnify" viewBox="0 0 48.75 48.749998" height="65" preserveAspectRatio="xMidYMid meet" version="1.0"><defs><clipPath id="7705bd1ec8"><path d="M 1.535156 6.808594 L 47.285156 6.808594 L 47.285156 25 L 1.535156 25 Z M 1.535156 6.808594 " clip-rule="nonzero"/></clipPath><clipPath id="0508b03bd5"><path d="M 1.535156 14 L 47.285156 14 L 47.285156 42.058594 L 1.535156 42.058594 Z M 1.535156 14 " clip-rule="nonzero"/></clipPath></defs><g clip-path="url(#7705bd1ec8)"><path fill="#333333" d="M 24.410156 24.140625 L 47.28125 10.394531 L 47.28125 10.335938 C 47.28125 9.867188 47.191406 9.417969 47.011719 8.984375 C 46.835938 8.554688 46.582031 8.171875 46.25 7.84375 C 45.921875 7.511719 45.539062 7.257812 45.109375 7.078125 C 44.679688 6.898438 44.230469 6.808594 43.761719 6.808594 L 5.058594 6.808594 C 4.59375 6.808594 4.144531 6.898438 3.714844 7.078125 C 3.28125 7.257812 2.902344 7.511719 2.570312 7.84375 C 2.242188 8.171875 1.988281 8.554688 1.808594 8.984375 C 1.628906 9.417969 1.542969 9.867188 1.542969 10.335938 L 1.542969 10.394531 Z M 24.410156 24.140625 " fill-opacity="1" fill-rule="nonzero"/></g><g clip-path="url(#0508b03bd5)"><path fill="#333333" d="M 25.316406 27.707031 C 25.039062 27.875 24.734375 27.960938 24.410156 27.960938 C 24.085938 27.960938 23.785156 27.875 23.503906 27.707031 L 1.542969 14.503906 L 1.542969 38.535156 C 1.542969 39.003906 1.628906 39.453125 1.808594 39.882812 C 1.988281 40.316406 2.242188 40.695312 2.570312 41.027344 C 2.902344 41.359375 3.28125 41.613281 3.714844 41.792969 C 4.144531 41.96875 4.59375 42.058594 5.058594 42.058594 L 43.761719 42.058594 C 44.230469 42.058594 44.679688 41.96875 45.109375 41.792969 C 45.539062 41.613281 45.921875 41.359375 46.25 41.027344 C 46.582031 40.695312 46.835938 40.316406 47.011719 39.882812 C 47.191406 39.453125 47.28125 39.003906 47.28125 38.535156 L 47.28125 14.503906 Z M 25.316406 27.707031 " fill-opacity="1" fill-rule="nonzero"/></g></svg>