<svg xmlns="http://www.w3.org/2000/svg" xmlns:xlink="http://www.w3.org/1999/xlink" width="100" zoomAndPan="magnify" viewBox="0 0 75 74.999997" height="100" preserveAspectRatio="xMidYMid meet" version="1.0"><defs><clipPath id="0fef5b0742"><path d="M 6.070312 11.886719 L 69 11.886719 L 69 62.886719 L 6.070312 62.886719 Z M 6.070312 11.886719 " clip-rule="nonzero"/></clipPath></defs><g clip-path="url(#0fef5b0742)"><path fill="#333333" d="M 57.835938 11.886719 C 57.386719 11.863281 56.988281 12.128906 56.851562 12.546875 C 56.847656 12.558594 56.4375 13.78125 55.8125 15.367188 C 53.664062 20.851562 46.296875 25.113281 40.125 26.488281 C 38.90625 25.773438 37.488281 25.355469 35.972656 25.355469 C 33.941406 25.355469 32.085938 26.09375 30.648438 27.308594 C 30.605469 27.304688 30.566406 27.28125 30.523438 27.28125 C 24.492188 27.15625 19.882812 20.101562 19.835938 20.027344 C 19.605469 19.667969 19.160156 19.503906 18.75 19.621094 C 18.335938 19.742188 18.050781 20.117188 18.050781 20.546875 L 18.050781 30.167969 C 18.050781 30.183594 18.054688 30.191406 18.058594 30.207031 C 17.480469 31.113281 17.132812 32.171875 17.09375 33.3125 C 14.445312 31.109375 11.085938 30.457031 8.773438 31.957031 C 7.597656 32.71875 6.824219 33.917969 6.539062 35.421875 C 6.125 37.613281 6.800781 40.125 8.386719 42.316406 C 10.308594 44.976562 13.167969 46.515625 15.714844 46.515625 C 15.769531 46.515625 15.820312 46.503906 15.875 46.503906 C 15.894531 46.519531 15.90625 46.546875 15.925781 46.5625 C 17.574219 47.878906 20.570312 49.574219 23.558594 50.871094 C 28.6875 53.101562 33.519531 54.230469 37.941406 54.230469 C 38.097656 54.230469 38.257812 54.226562 38.414062 54.226562 C 42.152344 54.15625 45.433594 53.367188 48.191406 51.886719 C 48.832031 52.25 49.488281 52.59375 50.160156 52.90625 C 53.433594 54.578125 56.449219 55.539062 57.785156 55.925781 C 57.78125 56 57.769531 56.070312 57.769531 56.148438 C 57.769531 60.011719 61.289062 60.878906 63.859375 61.511719 C 65.046875 61.808594 66.277344 62.109375 66.773438 62.605469 C 66.960938 62.785156 67.207031 62.886719 67.460938 62.886719 C 67.570312 62.886719 67.679688 62.867188 67.785156 62.828125 C 68.136719 62.703125 68.382812 62.390625 68.421875 62.019531 C 68.449219 61.769531 69.011719 55.851562 66.363281 52.945312 C 65.390625 51.878906 64.128906 51.339844 62.613281 51.339844 C 62.441406 51.339844 62.253906 51.355469 62.066406 51.382812 C 60.535156 49.976562 57.886719 48.371094 54.179688 46.597656 C 56.9375 42.773438 59.859375 35.746094 59.710938 23.179688 L 59.707031 22.769531 C 59.707031 17.90625 58.761719 12.882812 58.722656 12.667969 C 58.640625 12.238281 58.273438 11.917969 57.835938 11.886719 Z M 57.363281 16.671875 C 57.574219 18.441406 57.769531 20.640625 57.769531 22.769531 L 57.773438 23.203125 C 57.917969 35.613281 55.019531 42.285156 52.386719 45.773438 C 51.535156 45.398438 50.691406 45.042969 49.867188 44.726562 C 49.902344 44.683594 49.941406 44.644531 49.949219 44.601562 C 50.636719 41.878906 46.074219 39.792969 46.074219 39.792969 C 46.074219 39.792969 46.953125 41.210938 46.953125 42.699219 C 46.953125 44.601562 31.542969 44.601562 31.542969 44.601562 C 31.542969 44.601562 36.804688 46.652344 41.707031 47.316406 C 42.109375 47.660156 43.882812 49.167969 46.238281 50.703125 C 43.972656 51.714844 41.386719 52.246094 38.375 52.300781 C 34.105469 52.386719 29.386719 51.304688 24.335938 49.109375 C 22.125 48.148438 19.871094 46.9375 18.277344 45.878906 C 18.386719 45.820312 18.5 45.769531 18.605469 45.699219 C 19.78125 44.9375 20.554688 43.738281 20.839844 42.234375 C 21.019531 41.269531 20.980469 40.246094 20.757812 39.214844 C 21.558594 39.582031 22.441406 39.792969 23.378906 39.792969 C 25.527344 39.792969 27.425781 38.714844 28.5625 37.078125 C 29.894531 39.816406 32.710938 41.714844 35.972656 41.714844 C 40.511719 41.714844 44.207031 38.046875 44.207031 33.535156 C 44.207031 31.394531 43.367188 29.449219 42.007812 27.992188 C 47.96875 26.308594 54.804688 22.28125 57.363281 16.671875 Z M 19.988281 23.378906 C 21.117188 24.667969 22.746094 26.242188 24.738281 27.433594 C 24.300781 27.335938 23.847656 27.28125 23.378906 27.28125 C 22.128906 27.28125 20.96875 27.648438 19.988281 28.273438 Z M 54.628906 27.257812 L 52.691406 27.273438 C 52.15625 27.277344 51.726562 27.710938 51.730469 28.242188 C 51.734375 28.773438 52.167969 29.199219 52.707031 29.195312 L 54.644531 29.183594 C 55.179688 29.179688 55.609375 28.746094 55.605469 28.214844 C 55.601562 27.683594 55.164062 27.253906 54.628906 27.257812 Z M 35.972656 27.28125 C 39.445312 27.28125 42.269531 30.085938 42.269531 33.535156 C 42.269531 34.898438 41.824219 36.15625 41.074219 37.1875 C 41.210938 36.792969 41.300781 36.378906 41.300781 35.941406 C 41.300781 33.816406 39.566406 32.09375 37.425781 32.09375 C 35.285156 32.09375 33.550781 33.816406 33.550781 35.941406 C 33.550781 37.859375 34.964844 39.433594 36.808594 39.730469 C 36.535156 39.765625 36.257812 39.792969 35.972656 39.792969 C 32.5 39.792969 29.675781 36.984375 29.675781 33.535156 C 29.675781 30.085938 32.5 27.28125 35.972656 27.28125 Z M 27.25 28.613281 C 27.839844 28.816406 28.453125 28.96875 29.082031 29.070312 C 28.890625 29.367188 28.71875 29.675781 28.5625 29.992188 C 28.199219 29.46875 27.753906 29.007812 27.25 28.613281 Z M 23.378906 29.207031 C 25.78125 29.207031 27.738281 31.148438 27.738281 33.535156 C 27.738281 33.808594 27.707031 34.070312 27.660156 34.328125 C 27.359375 33.050781 26.210938 32.09375 24.832031 32.09375 C 23.226562 32.09375 21.925781 33.386719 21.925781 34.980469 C 21.925781 36.347656 22.886719 37.492188 24.175781 37.789062 C 23.917969 37.835938 23.652344 37.867188 23.378906 37.867188 C 20.976562 37.867188 19.019531 35.925781 19.019531 33.535156 C 19.019531 31.148438 20.976562 29.207031 23.378906 29.207031 Z M 52.265625 31.941406 C 51.738281 31.84375 51.234375 32.191406 51.140625 32.714844 C 51.042969 33.238281 51.390625 33.738281 51.917969 33.832031 L 53.824219 34.179688 C 54.351562 34.273438 54.855469 33.925781 54.953125 33.40625 C 55.046875 32.882812 54.699219 32.382812 54.171875 32.285156 Z M 24.832031 33.054688 C 25.367188 33.054688 25.800781 33.488281 25.800781 34.019531 C 25.800781 34.550781 25.367188 34.980469 24.832031 34.980469 C 24.296875 34.980469 23.863281 34.550781 23.863281 34.019531 C 23.863281 33.488281 24.296875 33.054688 24.832031 33.054688 Z M 36.941406 33.054688 C 37.742188 33.054688 38.394531 33.703125 38.394531 34.5 C 38.394531 35.296875 37.742188 35.941406 36.941406 35.941406 C 36.140625 35.941406 35.488281 35.296875 35.488281 34.5 C 35.488281 33.703125 36.140625 33.054688 36.941406 33.054688 Z M 11.679688 33.0625 C 13.59375 33.0625 15.882812 34.339844 17.421875 36.464844 C 18.679688 38.207031 19.246094 40.230469 18.933594 41.878906 C 18.808594 42.5625 18.464844 43.496094 17.546875 44.089844 C 15.519531 45.402344 12.042969 44.074219 9.957031 41.191406 C 8.699219 39.449219 8.132812 37.425781 8.445312 35.777344 C 8.574219 35.097656 8.917969 34.160156 9.832031 33.570312 C 10.367188 33.222656 11 33.0625 11.679688 33.0625 Z M 50.929688 36.121094 C 50.554688 36.121094 50.191406 36.335938 50.035156 36.703125 C 49.820312 37.191406 50.046875 37.757812 50.539062 37.96875 L 52.320312 38.730469 C 52.8125 38.941406 53.382812 38.714844 53.59375 38.226562 C 53.804688 37.738281 53.578125 37.171875 53.085938 36.960938 L 51.308594 36.203125 C 51.183594 36.148438 51.054688 36.125 50.929688 36.121094 Z M 46.414062 45.582031 C 48.277344 46.136719 50.351562 46.933594 52.4375 47.90625 C 53.578125 48.433594 54.621094 48.949219 55.570312 49.449219 C 54.867188 50.078125 54.136719 51.066406 53.945312 52.527344 C 53.023438 52.144531 52.027344 51.695312 51.011719 51.175781 C 48.101562 49.824219 45.34375 47.777344 43.921875 46.640625 C 44.648438 45.84375 45.628906 45.632812 46.414062 45.582031 Z M 57.421875 50.46875 C 58.453125 51.070312 59.320312 51.644531 60.007812 52.175781 C 59.308594 52.628906 58.679688 53.257812 58.269531 54.058594 C 57.714844 53.894531 56.867188 53.628906 55.835938 53.257812 C 55.839844 51.613281 56.886719 50.785156 57.421875 50.46875 Z M 62.613281 53.261719 C 63.570312 53.261719 64.324219 53.582031 64.921875 54.238281 C 66.214844 55.652344 66.535156 58.386719 66.550781 60.289062 C 65.878906 60.027344 65.113281 59.839844 64.328125 59.648438 C 61.453125 58.9375 59.707031 58.347656 59.707031 56.148438 C 59.707031 54.226562 61.570312 53.261719 62.613281 53.261719 Z M 62.613281 53.261719 " fill-opacity="1" fill-rule="nonzero"/></g></svg>