<svg xmlns="http://www.w3.org/2000/svg" xmlns:xlink="http://www.w3.org/1999/xlink" width="100" zoomAndPan="magnify" viewBox="0 0 75 74.999997" height="100" preserveAspectRatio="xMidYMid meet" version="1.0"><defs><clipPath id="e583d92805"><path d="M 8.378906 8.378906 L 66.878906 8.378906 L 66.878906 66.878906 L 8.378906 66.878906 Z M 8.378906 8.378906 " clip-rule="nonzero"/></clipPath></defs><g clip-path="url(#e583d92805)"><path fill="#545454" d="M 37.628906 8.378906 C 21.476562 8.378906 8.378906 21.476562 8.378906 37.628906 C 8.378906 53.785156 21.476562 66.878906 37.628906 66.878906 C 53.785156 66.878906 66.878906 53.785156 66.878906 37.628906 C 66.878906 21.476562 53.785156 8.378906 37.628906 8.378906 Z M 43.21875 54.871094 C 42.320312 55.042969 42.003906 54.492188 42.003906 54.019531 C 42.003906 53.4375 42.027344 51.53125 42.027344 49.160156 C 42.027344 47.507812 41.460938 46.429688 40.832031 45.882812 C 44.757812 45.441406 48.886719 43.945312 48.886719 37.140625 C 48.886719 35.207031 48.203125 33.625 47.070312 32.386719 C 47.253906 31.941406 47.859375 30.140625 46.898438 27.703125 C 46.898438 27.703125 45.417969 27.226562 42.050781 29.519531 C 40.640625 29.128906 39.128906 28.929688 37.632812 28.921875 C 36.132812 28.929688 34.625 29.128906 33.214844 29.519531 C 29.847656 27.230469 28.367188 27.703125 28.367188 27.703125 C 27.40625 30.140625 28.011719 31.941406 28.195312 32.386719 C 27.066406 33.625 26.378906 35.207031 26.378906 37.140625 C 26.378906 43.929688 30.496094 45.445312 34.414062 45.894531 C 33.910156 46.335938 33.453125 47.117188 33.292969 48.257812 C 32.285156 48.714844 29.734375 49.492188 28.160156 46.789062 C 28.160156 46.789062 27.230469 45.089844 25.460938 44.964844 C 25.460938 44.964844 23.738281 44.941406 25.339844 46.039062 C 25.339844 46.039062 26.496094 46.582031 27.296875 48.632812 C 27.296875 48.632812 28.332031 52.078125 33.238281 51.007812 C 33.25 52.484375 33.261719 53.597656 33.261719 54.019531 C 33.261719 54.488281 32.941406 55.035156 32.058594 54.875 C 25.046875 52.53125 19.992188 45.894531 19.992188 38.070312 C 19.992188 28.285156 27.890625 20.359375 37.632812 20.359375 C 47.375 20.359375 55.273438 28.289062 55.273438 38.070312 C 55.273438 45.890625 50.226562 52.523438 43.21875 54.871094 Z M 43.21875 54.871094 " fill-opacity="1" fill-rule="nonzero"/></g></svg>