<svg xmlns="http://www.w3.org/2000/svg" xmlns:xlink="http://www.w3.org/1999/xlink" width="45" zoomAndPan="magnify" viewBox="0 0 33.75 33.749999" height="45" preserveAspectRatio="xMidYMid meet" version="1.0"><defs><clipPath id="77cc3480d1"><path d="M 0 0 L 33.5 0 L 33.5 33.5 L 0 33.5 Z M 0 0 " clip-rule="nonzero"/></clipPath></defs><g clip-path="url(#77cc3480d1)"><path fill="#545454" d="M 16.875 0 C 7.554688 0 0 7.554688 0 16.875 C 0 26.195312 7.554688 33.75 16.875 33.75 C 26.195312 33.75 33.75 26.195312 33.75 16.875 C 33.75 7.554688 26.195312 0 16.875 0 Z M 20.097656 26.820312 C 19.582031 26.921875 19.398438 26.601562 19.398438 26.328125 C 19.398438 25.996094 19.410156 24.894531 19.410156 23.527344 C 19.410156 22.574219 19.085938 21.949219 18.722656 21.636719 C 20.988281 21.382812 23.367188 20.519531 23.367188 16.59375 C 23.367188 15.476562 22.976562 14.566406 22.320312 13.851562 C 22.425781 13.59375 22.777344 12.554688 22.222656 11.148438 C 22.222656 11.148438 21.367188 10.871094 19.425781 12.195312 C 18.613281 11.96875 17.742188 11.855469 16.875 11.851562 C 16.011719 11.855469 15.140625 11.96875 14.328125 12.195312 C 12.382812 10.875 11.53125 11.148438 11.53125 11.148438 C 10.976562 12.554688 11.328125 13.59375 11.429688 13.851562 C 10.78125 14.566406 10.382812 15.476562 10.382812 16.59375 C 10.382812 20.507812 12.757812 21.382812 15.019531 21.640625 C 14.726562 21.898438 14.464844 22.347656 14.371094 23.007812 C 13.792969 23.269531 12.320312 23.71875 11.410156 22.160156 C 11.410156 22.160156 10.875 21.179688 9.851562 21.105469 C 9.851562 21.105469 8.859375 21.09375 9.785156 21.726562 C 9.785156 21.726562 10.449219 22.039062 10.914062 23.222656 C 10.914062 23.222656 11.511719 25.210938 14.34375 24.59375 C 14.347656 25.445312 14.355469 26.085938 14.355469 26.328125 C 14.355469 26.601562 14.171875 26.914062 13.660156 26.824219 C 9.617188 25.472656 6.699219 21.640625 6.699219 17.128906 C 6.699219 11.484375 11.253906 6.910156 16.875 6.910156 C 22.496094 6.910156 27.054688 11.484375 27.054688 17.128906 C 27.054688 21.640625 24.140625 25.46875 20.101562 26.820312 Z M 20.097656 26.820312 " fill-opacity="1" fill-rule="nonzero"/></g></svg>