<svg xmlns="http://www.w3.org/2000/svg" xmlns:xlink="http://www.w3.org/1999/xlink" width="100" zoomAndPan="magnify" viewBox="0 0 75 74.999997" height="100" preserveAspectRatio="xMidYMid meet" version="1.0"><defs><g/></defs><g fill="#333333" fill-opacity="1"><g transform="translate(8.387782, 41.18615)"><g><path d="M 13.546875 -14.1875 L 13.546875 0 L 10.09375 0 L 10.09375 -5.84375 L 4.71875 -5.84375 L 4.71875 0 L 1.25 0 L 1.25 -14.1875 L 4.71875 -14.1875 L 4.71875 -8.640625 L 10.09375 -8.640625 L 10.09375 -14.1875 Z M 13.546875 -14.1875 "/></g></g></g><g fill="#333333" fill-opacity="1"><g transform="translate(23.168918, 41.18615)"><g><path d="M 11.46875 -14.1875 L 11.46875 -11.421875 L 7.703125 -11.421875 L 7.703125 0 L 4.25 0 L 4.25 -11.421875 L 0.484375 -11.421875 L 0.484375 -14.1875 Z M 11.46875 -14.1875 "/></g></g></g><g fill="#333333" fill-opacity="1"><g transform="translate(35.1192, 41.18615)"><g><path d="M 17.328125 -14.1875 L 17.328125 0 L 13.875 0 L 13.875 -8.515625 L 10.703125 0 L 7.90625 0 L 4.71875 -8.53125 L 4.71875 0 L 1.25 0 L 1.25 -14.1875 L 5.34375 -14.1875 L 9.328125 -4.375 L 13.265625 -14.1875 Z M 17.328125 -14.1875 "/></g></g></g><g fill="#333333" fill-opacity="1"><g transform="translate(53.681555, 41.18615)"><g><path d="M 4.71875 -2.671875 L 9.234375 -2.671875 L 9.234375 0 L 1.25 0 L 1.25 -14.1875 L 4.71875 -14.1875 Z M 4.71875 -2.671875 "/></g></g></g></svg>