<svg xmlns="http://www.w3.org/2000/svg" xmlns:xlink="http://www.w3.org/1999/xlink" width="45" zoomAndPan="magnify" viewBox="0 0 33.75 33.749999" height="45" preserveAspectRatio="xMidYMid meet" version="1.0"><path fill="#333333" d="M 16.492188 2.976562 C 20.894531 2.976562 21.417969 2.988281 23.160156 3.070312 C 24.765625 3.140625 25.640625 3.410156 26.226562 3.640625 C 26.992188 3.9375 27.539062 4.296875 28.121094 4.878906 C 28.699219 5.457031 29.050781 6.003906 29.355469 6.769531 C 29.578125 7.351562 29.847656 8.226562 29.925781 9.835938 C 30.007812 11.578125 30.019531 12.101562 30.019531 16.503906 C 30.019531 20.90625 30.007812 21.425781 29.925781 23.171875 C 29.855469 24.773438 29.585938 25.648438 29.355469 26.234375 C 29.058594 27.003906 28.699219 27.550781 28.121094 28.128906 C 27.539062 28.707031 26.992188 29.0625 26.226562 29.367188 C 25.648438 29.589844 24.773438 29.859375 23.160156 29.9375 C 21.417969 30.015625 20.894531 30.03125 16.492188 30.03125 C 12.089844 30.03125 11.570312 30.015625 9.828125 29.9375 C 8.222656 29.867188 7.347656 29.597656 6.761719 29.367188 C 5.992188 29.070312 5.445312 28.707031 4.867188 28.128906 C 4.289062 27.550781 3.933594 27.003906 3.628906 26.234375 C 3.40625 25.65625 3.136719 24.78125 3.058594 23.171875 C 2.980469 21.425781 2.964844 20.90625 2.964844 16.503906 C 2.964844 12.101562 2.980469 11.578125 3.058594 9.835938 C 3.128906 8.230469 3.398438 7.355469 3.628906 6.769531 C 3.925781 6.003906 4.289062 5.457031 4.867188 4.878906 C 5.445312 4.296875 5.992188 3.945312 6.761719 3.640625 C 7.339844 3.417969 8.214844 3.148438 9.828125 3.070312 C 11.570312 2.988281 12.089844 2.976562 16.492188 2.976562 M 16.492188 0.00390625 C 12.011719 0.00390625 11.453125 0.0234375 9.6875 0.105469 C 7.933594 0.183594 6.730469 0.464844 5.683594 0.871094 C 4.597656 1.289062 3.679688 1.855469 2.761719 2.773438 C 1.851562 3.691406 1.285156 4.609375 0.867188 5.695312 C 0.460938 6.742188 0.179688 7.941406 0.101562 9.699219 C 0.0234375 11.457031 0 12.019531 0 16.496094 C 0 20.980469 0.0234375 21.535156 0.101562 23.300781 C 0.179688 25.058594 0.460938 26.257812 0.867188 27.304688 C 1.285156 28.390625 1.851562 29.308594 2.769531 30.226562 C 3.6875 31.144531 4.605469 31.710938 5.691406 32.128906 C 6.738281 32.535156 7.9375 32.816406 9.695312 32.894531 C 11.453125 32.976562 12.015625 32.996094 16.5 32.996094 C 20.984375 32.996094 21.539062 32.976562 23.304688 32.894531 C 25.0625 32.816406 26.261719 32.535156 27.308594 32.128906 C 28.394531 31.710938 29.3125 31.144531 30.230469 30.226562 C 31.148438 29.308594 31.714844 28.390625 32.132812 27.304688 C 32.539062 26.257812 32.820312 25.058594 32.898438 23.300781 C 32.976562 21.542969 33 20.980469 33 16.496094 C 33 12.011719 32.976562 11.457031 32.898438 9.691406 C 32.820312 7.933594 32.539062 6.734375 32.132812 5.6875 C 31.714844 4.601562 31.148438 3.683594 30.230469 2.765625 C 29.3125 1.847656 28.394531 1.285156 27.308594 0.863281 C 26.261719 0.460938 25.0625 0.175781 23.304688 0.0976562 C 21.539062 0.0234375 20.976562 0.00390625 16.492188 0.00390625 " fill-opacity="1" fill-rule="nonzero"/><path fill="#333333" d="M 16.492188 8.03125 C 11.816406 8.03125 8.027344 11.816406 8.027344 16.496094 C 8.027344 21.175781 11.820312 24.96875 16.5 24.96875 C 21.179688 24.96875 24.972656 21.183594 24.972656 16.496094 C 24.96875 11.816406 21.171875 8.03125 16.492188 8.03125 M 16.492188 22 C 13.457031 22 10.996094 19.539062 10.996094 16.503906 C 10.996094 13.46875 13.457031 11.007812 16.492188 11.007812 C 19.53125 11.007812 21.988281 13.46875 21.988281 16.503906 C 21.996094 19.53125 19.53125 22 16.492188 22 " fill-opacity="1" fill-rule="nonzero"/><path fill="#333333" d="M 27.28125 7.695312 C 27.28125 8.789062 26.390625 9.679688 25.300781 9.679688 C 24.207031 9.679688 23.316406 8.789062 23.316406 7.695312 C 23.316406 6.605469 24.207031 5.714844 25.300781 5.714844 C 26.390625 5.714844 27.28125 6.597656 27.28125 7.695312 " fill-opacity="1" fill-rule="nonzero"/></svg>