<svg xmlns="http://www.w3.org/2000/svg" xmlns:xlink="http://www.w3.org/1999/xlink" width="65" zoomAndPan="magnify" viewBox="0 0 48.75 48.749998" height="65" preserveAspectRatio="xMidYMid meet" version="1.0"><defs><clipPath id="84ea48ceb6"><path d="M 5.164062 5.164062 L 43 5.164062 L 43 43 L 5.164062 43 Z M 5.164062 5.164062 " clip-rule="nonzero"/></clipPath></defs><g clip-path="url(#84ea48ceb6)"><path fill="#333333" d="M 29.339844 22.648438 C 28.203125 21.511719 26.949219 20.253906 25.8125 19.117188 C 23.402344 16.707031 19.019531 16.988281 16.046875 19.964844 C 13.667969 22.339844 10.753906 25.257812 8.375 27.632812 C 5.398438 30.609375 5.121094 34.992188 7.53125 37.398438 C 8.667969 38.535156 9.921875 39.792969 11.058594 40.929688 C 13.46875 43.335938 17.847656 43.058594 20.824219 40.082031 C 22.511719 38.394531 24.46875 36.4375 26.316406 34.59375 C 26.792969 34.117188 26.792969 33.339844 26.316406 32.863281 C 25.839844 32.386719 25.0625 32.386719 24.585938 32.863281 C 22.742188 34.707031 20.78125 36.667969 19.097656 38.355469 C 17.164062 40.285156 14.351562 40.765625 12.789062 39.199219 C 12.789062 39.199219 9.257812 35.671875 9.257812 35.671875 C 7.695312 34.105469 8.171875 31.292969 10.105469 29.363281 C 12.480469 26.984375 15.398438 24.066406 17.773438 21.691406 C 19.707031 19.757812 22.519531 19.28125 24.082031 20.84375 C 24.082031 20.84375 27.613281 24.375 27.613281 24.375 C 28.089844 24.851562 28.863281 24.851562 29.339844 24.375 C 29.816406 23.898438 29.816406 23.125 29.339844 22.648438 Z M 19.117188 25.8125 C 20.253906 26.949219 21.511719 28.203125 22.648438 29.339844 C 25.054688 31.75 29.4375 31.46875 32.410156 28.496094 C 34.789062 26.117188 37.707031 23.203125 40.082031 20.824219 C 43.058594 17.847656 43.335938 13.46875 40.929688 11.058594 C 39.792969 9.921875 38.535156 8.667969 37.398438 7.53125 C 34.992188 5.121094 30.609375 5.398438 27.632812 8.375 C 25.949219 10.0625 23.988281 12.019531 22.144531 13.867188 C 21.667969 14.34375 21.667969 15.117188 22.144531 15.59375 C 22.621094 16.070312 23.394531 16.070312 23.871094 15.59375 C 25.714844 13.75 27.675781 11.789062 29.363281 10.105469 C 31.292969 8.171875 34.105469 7.695312 35.671875 9.257812 C 35.671875 9.257812 39.199219 12.789062 39.199219 12.789062 C 40.765625 14.351562 40.285156 17.164062 38.355469 19.097656 C 35.976562 21.472656 33.0625 24.390625 30.683594 26.765625 C 28.753906 28.699219 25.9375 29.175781 24.375 27.613281 C 24.375 27.613281 20.84375 24.082031 20.84375 24.082031 C 20.367188 23.605469 19.59375 23.605469 19.117188 24.082031 C 18.640625 24.558594 18.640625 25.335938 19.117188 25.8125 Z M 19.117188 25.8125 " fill-opacity="1" fill-rule="evenodd"/></g></svg>