<svg xmlns="http://www.w3.org/2000/svg" xmlns:xlink="http://www.w3.org/1999/xlink" width="45" zoomAndPan="magnify" viewBox="0 0 33.75 33.749999" height="45" preserveAspectRatio="xMidYMid meet" version="1.0"><path fill="#545454" d="M 30.242188 0 L 2.773438 0 C 1.253906 0 0.03125 1.238281 0.03125 2.742188 L 0.03125 30.257812 C 0.03125 31.777344 1.269531 33 2.773438 33 L 30.226562 33 C 31.746094 33 32.96875 31.761719 32.96875 30.257812 L 32.96875 2.742188 C 32.984375 1.238281 31.761719 0 30.242188 0 Z M 9.789062 27.222656 L 4.917969 27.222656 L 4.917969 12.597656 L 9.789062 12.597656 Z M 7.347656 10.828125 C 5.8125 10.828125 4.574219 9.589844 4.574219 8.054688 C 4.574219 6.519531 5.8125 5.28125 7.347656 5.28125 C 8.882812 5.28125 10.121094 6.519531 10.121094 8.054688 C 10.121094 9.589844 8.882812 10.828125 7.347656 10.828125 Z M 28.113281 27.222656 L 23.226562 27.222656 L 23.113281 18.539062 C 23.113281 18.539062 23.226562 16.226562 20.703125 16.242188 C 18.175781 16.261719 17.828125 18.539062 17.828125 18.539062 L 17.828125 27.222656 L 12.910156 27.222656 L 12.910156 12.597656 L 17.628906 12.597656 L 17.628906 14.609375 C 17.628906 14.609375 17.828125 13.949219 18.917969 13.171875 C 20.007812 12.398438 21.808594 12.234375 22.582031 12.265625 C 23.359375 12.296875 24.414062 12.167969 26.183594 13.386719 C 28.082031 14.691406 28.128906 18.109375 28.128906 18.109375 Z M 28.113281 27.222656 " fill-opacity="1" fill-rule="nonzero"/></svg>