<svg xmlns="http://www.w3.org/2000/svg" xmlns:xlink="http://www.w3.org/1999/xlink" width="100" zoomAndPan="magnify" viewBox="0 0 75 74.999997" height="100" preserveAspectRatio="xMidYMid meet" version="1.0"><defs><clipPath id="cf4adc5de5"><path d="M 9.6875 9.839844 L 51 9.839844 L 51 52 L 9.6875 52 Z M 9.6875 9.839844 " clip-rule="nonzero"/></clipPath><clipPath id="7814f06328"><path d="M 37.246094 9.832031 C 23.164062 9.832031 24.042969 15.976562 24.042969 15.976562 L 24.058594 22.335938 L 37.496094 22.335938 L 37.496094 24.246094 L 18.71875 24.246094 C 18.71875 24.246094 9.707031 23.21875 9.707031 37.507812 C 9.707031 51.796875 17.574219 51.289062 17.574219 51.289062 L 22.269531 51.289062 L 22.269531 44.65625 C 22.269531 44.65625 22.015625 36.75 30.007812 36.75 L 43.339844 36.75 C 43.339844 36.75 50.824219 36.871094 50.824219 29.472656 L 50.824219 17.238281 C 50.824219 17.238281 51.964844 9.832031 37.246094 9.832031 L 37.246094 9.835938 Z M 29.835938 14.113281 C 31.171875 14.113281 32.253906 15.199219 32.253906 16.542969 C 32.253906 17.886719 31.171875 18.972656 29.835938 18.972656 C 28.5 18.972656 27.417969 17.886719 27.417969 16.542969 C 27.417969 15.199219 28.5 14.113281 29.835938 14.113281 Z M 29.835938 14.113281 " clip-rule="nonzero"/></clipPath><clipPath id="258d93c636"><path d="M 24 23 L 65.1875 23 L 65.1875 65.339844 L 24 65.339844 Z M 24 23 " clip-rule="nonzero"/></clipPath><clipPath id="cd58a1e99c"><path d="M 37.648438 65.324219 C 51.730469 65.324219 50.847656 59.183594 50.847656 59.183594 L 50.835938 52.820312 L 37.394531 52.820312 L 37.394531 50.910156 L 56.171875 50.910156 C 56.171875 50.910156 65.183594 51.9375 65.183594 37.652344 C 65.183594 23.363281 57.320312 23.871094 57.320312 23.871094 L 52.625 23.871094 L 52.625 30.5 C 52.625 30.5 52.875 38.410156 44.882812 38.410156 L 31.554688 38.410156 C 31.554688 38.410156 24.066406 38.285156 24.066406 45.6875 L 24.066406 57.921875 C 24.066406 57.921875 22.929688 65.324219 37.648438 65.324219 Z M 45.054688 61.046875 C 43.71875 61.046875 42.636719 59.957031 42.636719 58.613281 C 42.636719 57.269531 43.71875 56.183594 45.054688 56.183594 C 46.394531 56.183594 47.472656 57.269531 47.472656 58.613281 C 47.472656 59.957031 46.394531 61.046875 45.054688 61.046875 Z M 45.054688 61.046875 " clip-rule="nonzero"/></clipPath></defs><g clip-path="url(#cf4adc5de5)"><g clip-path="url(#7814f06328)"><path fill="#545454" d="M 9.707031 9.839844 L 9.707031 51.796875 L 51.964844 51.796875 L 51.964844 9.839844 Z M 9.707031 9.839844 " fill-opacity="1" fill-rule="nonzero"/></g></g><g clip-path="url(#258d93c636)"><g clip-path="url(#cd58a1e99c)"><path fill="#545454" d="M 22.929688 23.363281 L 22.929688 65.324219 L 65.183594 65.324219 L 65.183594 23.363281 Z M 22.929688 23.363281 " fill-opacity="1" fill-rule="nonzero"/></g></g></svg>