<svg xmlns="http://www.w3.org/2000/svg" xmlns:xlink="http://www.w3.org/1999/xlink" width="100" zoomAndPan="magnify" viewBox="0 0 75 74.999997" height="100" preserveAspectRatio="xMidYMid meet" version="1.0"><defs><clipPath id="df5711f2a1"><path d="M 10.402344 10.402344 L 64.402344 10.402344 L 64.402344 64.402344 L 10.402344 64.402344 Z M 10.402344 10.402344 " clip-rule="nonzero"/></clipPath></defs><g clip-path="url(#df5711f2a1)"><path fill="#545454" d="M 62.484375 16.226562 L 51.375 10.882812 C 50.746094 10.578125 50.039062 10.476562 49.351562 10.59375 C 48.660156 10.707031 48.027344 11.035156 47.535156 11.53125 L 26.257812 30.945312 L 16.984375 23.914062 C 16.566406 23.59375 16.050781 23.429688 15.523438 23.453125 C 15 23.476562 14.5 23.683594 14.109375 24.035156 L 11.140625 26.742188 C 10.910156 26.953125 10.722656 27.207031 10.59375 27.496094 C 10.46875 27.78125 10.402344 28.089844 10.402344 28.402344 C 10.402344 28.714844 10.464844 29.023438 10.589844 29.3125 C 10.71875 29.597656 10.902344 29.855469 11.132812 30.066406 L 19.175781 37.402344 L 11.132812 44.742188 C 10.902344 44.953125 10.71875 45.210938 10.589844 45.496094 C 10.464844 45.785156 10.402344 46.09375 10.402344 46.40625 C 10.402344 46.71875 10.46875 47.027344 10.59375 47.3125 C 10.722656 47.601562 10.910156 47.855469 11.140625 48.066406 L 14.109375 50.773438 C 14.5 51.125 15 51.332031 15.523438 51.355469 C 16.050781 51.378906 16.566406 51.214844 16.984375 50.894531 L 26.257812 43.855469 L 47.542969 63.277344 C 48.035156 63.773438 48.667969 64.101562 49.355469 64.214844 C 50.042969 64.332031 50.75 64.230469 51.375 63.925781 L 62.496094 58.574219 C 63.066406 58.300781 63.550781 57.867188 63.886719 57.332031 C 64.226562 56.792969 64.402344 56.167969 64.402344 55.535156 L 64.402344 19.261719 C 64.402344 17.96875 63.652344 16.785156 62.484375 16.222656 Z M 50.90625 49.667969 L 34.753906 37.40625 L 50.90625 25.144531 Z M 50.90625 49.667969 " fill-opacity="1" fill-rule="nonzero"/></g></svg>